<svg width="10" height="20" viewBox="0 0 10 20" fill="none" xmlns="http://www.w3.org/2000/svg">
<g clip-path="url(#clip0_395_7054)">
<path d="M9.7774 0.235354C9.92011 0.389221 10 0.595774 10 0.81086C10 1.02595 9.92011 1.2325 9.7774 1.38637L1.80457 10L9.7774 18.6119C9.92011 18.7658 10 18.9723 10 19.1874C10 19.4025 9.92011 19.6091 9.7774 19.7629C9.70803 19.838 9.6251 19.8976 9.53349 19.9383C9.44188 19.979 9.34346 20 9.24402 20C9.14459 20 9.04616 19.979 8.95456 19.9383C8.86295 19.8976 8.78001 19.838 8.71065 19.7629L0.23225 10.6014C0.0833406 10.4405 0 10.2247 0 10C0 9.77532 0.0833406 9.55954 0.23225 9.39865L8.71065 0.237078C8.78001 0.162049 8.86295 0.102416 8.95456 0.061697C9.04616 0.0209784 9.14459 0 9.24402 0C9.34346 0 9.44188 0.0209784 9.53349 0.061697C9.6251 0.102416 9.70803 0.162049 9.7774 0.237078V0.235354Z" fill="#9FA4A9"/>
</g>
<defs>
<clipPath id="clip0_395_7054">
<rect width="20" height="10" fill="white" transform="matrix(4.37114e-08 -1 -1 -4.37114e-08 10 20)"/>
</clipPath>
</defs>
</svg>
