<svg width="24" height="24" viewBox="0 0 24 24" fill="none" xmlns="http://www.w3.org/2000/svg">
<path d="M9.6001 20.3998C9.6001 20.2407 9.66331 20.0881 9.77583 19.9755C9.88835 19.863 10.041 19.7998 10.2001 19.7998C10.3592 19.7998 10.5118 19.863 10.6244 19.9755C10.7369 20.0881 10.8001 20.2407 10.8001 20.3998C10.8001 20.7181 10.9265 21.0233 11.1516 21.2483C11.3766 21.4734 11.6818 21.5998 12.0001 21.5998C12.3184 21.5998 12.6236 21.4734 12.8486 21.2483C13.0737 21.0233 13.2001 20.7181 13.2001 20.3998C13.2001 20.2407 13.2633 20.0881 13.3758 19.9755C13.4884 19.863 13.641 19.7998 13.8001 19.7998C13.9592 19.7998 14.1118 19.863 14.2244 19.9755C14.3369 20.0881 14.4001 20.2407 14.4001 20.3998C14.4001 21.0363 14.1472 21.6468 13.6972 22.0969C13.2471 22.5469 12.6366 22.7998 12.0001 22.7998C11.3636 22.7998 10.7531 22.5469 10.303 22.0969C9.85295 21.6468 9.6001 21.0363 9.6001 20.3998Z" fill="#9FA4A9"/>
<path fill-rule="evenodd" clip-rule="evenodd" d="M21 17.4002C21 16.772 20.8334 16.155 20.5172 15.6122C20.201 15.0693 19.7465 14.6201 19.2 14.3102V10.8002C19.2 9.04977 18.5046 7.37103 17.2669 6.13329C16.0292 4.89555 14.3504 4.2002 12.6 4.2002H11.4C9.64957 4.2002 7.97084 4.89555 6.7331 6.13329C5.49536 7.37103 4.8 9.04977 4.8 10.8002V14.3102C4.25352 14.6201 3.79899 15.0693 3.48278 15.6122C3.16656 16.155 2.99997 16.772 3 17.4002C3 18.0367 3.25286 18.6472 3.70294 19.0973C4.15303 19.5473 4.76348 19.8002 5.4 19.8002H18.6C19.2365 19.8002 19.847 19.5473 20.2971 19.0973C20.7471 18.6472 21 18.0367 21 17.4002ZM18 15.0698L18.354 15.2294L18.42 15.2582C18.8315 15.4449 19.1805 15.7463 19.4252 16.1261C19.6699 16.506 19.8 16.9483 19.8 17.4002C19.8 17.7185 19.6736 18.0237 19.4485 18.2487C19.2235 18.4738 18.9183 18.6002 18.6 18.6002H5.4C5.08174 18.6002 4.77652 18.4738 4.55147 18.2487C4.32643 18.0237 4.2 17.7185 4.2 17.4002C4.2 16.4774 4.74 15.6398 5.58 15.2594L5.646 15.2294L6 15.0698V10.8002C6 9.36803 6.56893 7.99452 7.58162 6.98182C8.59432 5.96912 9.96783 5.4002 11.4 5.4002H12.6C14.0322 5.4002 15.4057 5.96912 16.4184 6.98182C17.4311 7.99452 18 9.36803 18 10.8002V15.0698Z" fill="#9FA4A9"/>
</svg>
