<svg width="24" height="24" viewBox="0 0 24 24" fill="none" xmlns="http://www.w3.org/2000/svg">
<g clip-path="url(#clip0_155_1792)">
<path d="M12.21 6.97C12.99 6.97 13.96 6.44 14.54 5.75C15.07 5.12 15.45 4.23 15.45 3.34C15.45 3.22 15.44 3.1 15.42 3C14.56 3.03 13.52 3.58 12.89 4.31C12.4 4.87 11.95 5.74 11.95 6.64C11.95 6.77 11.97 6.9 11.98 6.95C12.03 6.96 12.12 6.97 12.21 6.97ZM9.48 20.2C10.54 20.2 11.01 19.49 12.33 19.49C13.65 19.49 13.97 20.18 15.15 20.18C16.33 20.18 17.09 19.11 17.82 18.06C18.64 16.86 18.98 15.68 19 15.62C18.92 15.6 16.7 14.69 16.7 12.14C16.7 9.93 18.45 8.94 18.55 8.86C17.39 7.2 15.63 7.15 15.15 7.15C13.85 7.15 12.79 7.94 12.12 7.94C11.4 7.94 10.45 7.2 9.32 7.2C7.18 7.2 5 8.97 5 12.32C5 14.4 5.81 16.6 6.8 18.02C7.65 19.22 8.4 20.21 9.47 20.21L9.48 20.2Z" fill="black"/>
</g>
<defs>
<clipPath id="clip0_155_1792">
<rect width="14" height="17.2" fill="white" transform="translate(5 3)"/>
</clipPath>
</defs>
</svg>
