<svg width="24" height="24" viewBox="0 0 24 24" fill="none" xmlns="http://www.w3.org/2000/svg">
<g clip-path="url(#clip0_155_1828)">
<path d="M20 12.3466C20 11.6711 19.9467 11.1822 19.8311 10.6755H12.16V13.7066H16.6578C16.5689 14.4622 16.08 15.5911 14.9867 16.3555L14.9689 16.4533L17.3956 18.3289L17.5644 18.3466C19.1022 16.9244 19.9911 14.8266 19.9911 12.3378" fill="#4285F4"/>
<path d="M12.16 20.3289C14.3644 20.3289 16.2133 19.6 17.5644 18.3556L14.9867 16.3645C14.2933 16.8445 13.3689 17.1822 12.16 17.1822C10 17.1822 8.16889 15.76 7.52 13.7867H7.42222L4.90666 15.7422L4.87111 15.8311C6.21333 18.4978 8.96889 20.3289 12.16 20.3289Z" fill="#34A853"/>
<path d="M7.52 13.7778C7.35111 13.2711 7.24444 12.7289 7.24444 12.16C7.24444 11.5911 7.34222 11.0578 7.51111 10.5422V10.4356L4.95111 8.46222L4.87111 8.49777C4.32 9.6 4 10.8444 4 12.16C4 13.4756 4.32 14.72 4.87111 15.8222L7.52 13.7689" fill="#FBBC05"/>
<path d="M12.16 7.15556C13.6889 7.15556 14.7289 7.81333 15.3156 8.37333L17.6178 6.12444C16.2044 4.80889 14.3644 4 12.16 4C8.96889 4 6.21333 5.83111 4.87111 8.49778L7.51111 10.5511C8.16889 8.58667 10.0089 7.15556 12.16 7.15556Z" fill="#EB4335"/>
</g>
<defs>
<clipPath id="clip0_155_1828">
<rect width="16" height="16.3289" fill="white" transform="translate(4 4)"/>
</clipPath>
</defs>
</svg>
